<?xml version="1.0" encoding="utf-8"?>
<!-- Generator: Adobe Illustrator 25.0.0, SVG Export Plug-In . SVG Version: 6.00 Build 0)  -->
<svg version="1.1" id="Layer_1" xmlns="http://www.w3.org/2000/svg" xmlns:xlink="http://www.w3.org/1999/xlink" x="0px" y="0px"
	 viewBox="0 0 1000 2310" style="enable-background:new 0 0 1000 2310;" xml:space="preserve">
<style type="text/css">
	.st0{fill:none;stroke:#D8D8D8;stroke-width:5;stroke-miterlimit:10;}
	.st1{fill:none;stroke:#D8D8D8;stroke-width:3;stroke-miterlimit:10;}
</style>
<g>
	<g>
		<line class="st0" x1="114" y1="0" x2="114" y2="2310"/>
	</g>
	<g>
		<line class="st0" x1="224.2" y1="0" x2="224.2" y2="2310"/>
	</g>
	<g>
		<line class="st0" x1="334.6" y1="0" x2="334.6" y2="2310"/>
	</g>
	<g>
		<line class="st0" x1="444.8" y1="0" x2="444.8" y2="2310"/>
	</g>
	<g>
		<line class="st0" x1="555.2" y1="0" x2="555.2" y2="2310"/>
	</g>
	<g>
		<line class="st0" x1="665.4" y1="0" x2="665.4" y2="2310"/>
	</g>
	<g>
		<line class="st0" x1="775.8" y1="0" x2="775.8" y2="2310"/>
	</g>
	<g>
		<line class="st0" x1="886" y1="0" x2="886" y2="2310"/>
	</g>
</g>
<g>
	<g>
		<g>
			<line class="st0" x1="0" y1="776.3" x2="1000" y2="776.3"/>
		</g>
		<g>
			<line class="st0" x1="0" y1="664.9" x2="1000" y2="664.9"/>
		</g>
		<g>
			<line class="st0" x1="0" y1="553.6" x2="1000" y2="553.6"/>
		</g>
		<g>
			<line class="st0" x1="0" y1="442.3" x2="1000" y2="442.3"/>
		</g>
		<g>
			<line class="st0" x1="0" y1="330.9" x2="1000" y2="330.9"/>
		</g>
		<g>
			<line class="st0" x1="0" y1="219.6" x2="1000" y2="219.6"/>
		</g>
		<g>
			<line class="st0" x1="0" y1="108.2" x2="1000" y2="108.2"/>
		</g>
	</g>
	<g>
		<g>
			<line class="st0" x1="0" y1="1555.7" x2="1000" y2="1555.7"/>
		</g>
		<g>
			<line class="st0" x1="0" y1="1444.4" x2="1000" y2="1444.4"/>
		</g>
		<g>
			<line class="st0" x1="0" y1="1333" x2="1000" y2="1333"/>
		</g>
		<g>
			<line class="st0" x1="0" y1="1221.7" x2="1000" y2="1221.7"/>
		</g>
		<g>
			<line class="st0" x1="0" y1="1110.3" x2="1000" y2="1110.3"/>
		</g>
		<g>
			<line class="st0" x1="0" y1="999" x2="1000" y2="999"/>
		</g>
		<g>
			<line class="st0" x1="0" y1="887.6" x2="1000" y2="887.6"/>
		</g>
	</g>
	<g>
		<g>
			<line class="st0" x1="0" y1="2223.8" x2="1000" y2="2223.8"/>
		</g>
		<g>
			<line class="st0" x1="0" y1="2112.4" x2="1000" y2="2112.4"/>
		</g>
		<g>
			<line class="st0" x1="0" y1="2001.1" x2="1000" y2="2001.1"/>
		</g>
		<g>
			<line class="st0" x1="0" y1="1889.7" x2="1000" y2="1889.7"/>
		</g>
		<g>
			<line class="st0" x1="0" y1="1778.4" x2="1000" y2="1778.4"/>
		</g>
		<g>
			<line class="st0" x1="0" y1="1667.1" x2="1000" y2="1667.1"/>
		</g>
	</g>
</g>
<g>
	<line class="st0" x1="0" y1="2.7" x2="1000" y2="2.7"/>
</g>
<g>
	<path class="st1" d="M54,19.4v45.3H39.9c0,0-9-20.2-7.5-29.9c3.6-1.2,6.3-12.3,2.4-16.9l8.5-1C44.1,18.3,48.5,19.4,54,19.4z"/>
	<path class="st1" d="M32.5,34.8c0,0-8.3,2.5-11.3,1.9C19.7,34.3,19,26.8,20,24c1.2-3.3,6-9.2,14.9-6.1c2.7-0.5,5.7-0.8,8.5-1"/>
	<path class="st1" d="M75.5,34.8c1.5,9.6-7.5,29.9-7.5,29.9H54"/>
	<path class="st1" d="M73.1,17.9c-3.9,4.5-1.2,15.6,2.4,16.9c0,0,8.3,2.5,11.3,1.9C88.3,34.3,89,26.8,88,24
		C86.8,20.7,82,14.9,73.1,17.9l-8.5-1C67.4,17.1,70.4,17.4,73.1,17.9"/>
	<path class="st1" d="M64.7,16.6c0,0.1,0,0.2-0.1,0.3c-0.6,1.3-5.1,2.4-10.6,2.4s-9.9-1-10.6-2.4c-0.1-0.1-0.1-0.2-0.1-0.3
		c0-1.5,4.8-2.7,10.7-2.7S64.7,15.2,64.7,16.6z"/>
	<polygon class="st1" points="39.9,64.6 34,88.6 39.4,95.5 47.2,89.5 49.3,64.6 	"/>
	<polygon class="st1" points="49.3,64.6 47.2,89.5 54,96.8 60.5,89.2 58.8,64.6 	"/>
	<polygon class="st1" points="58.8,64.6 60.5,89.2 67.9,95.5 73.7,89.2 68.1,64.6 	"/>
</g>
<g>
	<polygon class="st1" points="143.4,394.1 148.1,368.6 170.9,360.5 190.7,377.3 180.5,422.7 	"/>
	<polyline class="st1" points="166.9,385.2 180.5,422.3 180.6,422.4 	"/>
	<polyline class="st1" points="143.5,393.6 166.9,385.2 190.3,376.9 	"/>
	<line class="st1" x1="166.9" y1="385.3" x2="148.3" y2="368.5"/>
	<line class="st1" x1="171.1" y1="360.4" x2="166.9" y2="385.3"/>
	<line class="st1" x1="139.9" y1="382.9" x2="131.3" y2="381.6"/>
	<line class="st1" x1="158" y1="360.4" x2="154.2" y2="349.5"/>
	<line class="st1" x1="142.3" y1="369.2" x2="137" y2="365.1"/>
	<line class="st1" x1="173.7" y1="356.3" x2="174.7" y2="349.5"/>
	<line class="st1" x1="184.1" y1="365" x2="188.2" y2="361"/>
	<line class="st1" x1="192.7" y1="373.5" x2="199.7" y2="370.2"/>
	<line class="st1" x1="137.6" y1="394.4" x2="132.5" y2="395.8"/>
</g>
<g>
	<path class="st1" d="M706.3,206.4c0,0-3.7-55.5,15.6-69.4c-5.5,0-9.2,0-9.2,0s-18.3,8.1-18.5,28.3s0,32.5,0,32.5
		S700.1,205.9,706.3,206.4z"/>
	<path class="st1" d="M737.2,206.4c0,0,3.7-55.5-15.3-69.4c5.4,0,9.1,0,9.1,0s17.9,8.1,18.2,28.3c0.2,20.2,0,32.5,0,32.5
		S743.3,205.9,737.2,206.4z"/>
	<polygon class="st1" points="732.5,128.4 731,137.1 712.7,137.1 711.4,128.4 	"/>
	<path class="st1" d="M721.8,128.4v8.7c-3,7-4.5,24.4-4.5,24.4"/>
	<path class="st1" d="M706,193.8c10-3.7,31.5,0,31.5,0"/>
	<path class="st1" d="M725.3,161.5c0,0-1.2-15.7-3.5-24.4"/>
</g>
<g>
	<path class="st1" d="M136.2,1405.9c-0.1-1.2-0.2-2.4-0.2-3.6c0-16.7,13.5-30.2,30.2-30.2s30.2,13.5,30.2,30.2
		c0,1.2-0.1,2.4-0.2,3.6"/>
	<circle class="st1" cx="166.5" cy="1408.9" r="2.2"/>
	<circle class="st1" cx="181.2" cy="1409.1" r="2.2"/>
	<circle class="st1" cx="194.1" cy="1410.2" r="2.2"/>
	<circle class="st1" cx="151.1" cy="1409.1" r="2.2"/>
	<circle class="st1" cx="138.2" cy="1410.2" r="2.2"/>
	<polyline class="st1" points="160.9,1404.2 160.9,1372.5 160.9,1372.3 166.7,1356.7 172.1,1372.6 172.1,1372.6 172.1,1404.2 
		172.1,1404.7 	"/>
	<path class="st1" d="M199.3,1407c0.1-0.1,0.2-0.2,0.2-0.3c0-1.4-14.8-2.5-33-2.5s-33,1.1-33,2.5c0,0.1,0.1,0.2,0.2,0.3"/>
	<ellipse class="st1" cx="166.5" cy="1416.2" rx="33" ry="2.5"/>
	<polyline class="st1" points="133.5,1416.5 133.5,1416.2 133.5,1407 133.7,1407 	"/>
	<polyline class="st1" points="199.3,1407 199.5,1407 199.5,1416.2 199.5,1416.5 	"/>
</g>
<g>
	<path class="st1" d="M828,1602.3c-10.1,1.8-17.7,10.6-17.7,21.2c0,11.9,9.6,21.5,21.5,21.5c11.9,0,21.5-9.6,21.5-21.5
		c0-10.5-7.5-19.3-17.5-21.2l4.1-6.6c12,3.5,20.7,14.6,20.7,27.7c0,15.9-13,28.9-28.9,28.9c-15.9,0-28.9-13-28.9-28.9
		c0-13.2,8.8-24.3,20.9-27.8"/>
	<polygon class="st1" points="819.7,1589.3 826,1578.4 837.8,1578.4 844.1,1589.3 832,1608.5 	"/>
</g>
<g>
	<path class="st1" d="M943.5,942.3"/>
	<circle class="st1" cx="943.5" cy="942.3" r="40.8"/>
	<path class="st1" d="M972.2,942.3c0,11.6-6.9,21.6-16.8,26.1c-2.6,1.2-5.5,2-8.5,2.4c-1.1,0.1-2.2,0.2-3.4,0.2
		c-1.2,0-2.3-0.1-3.4-0.2c-3.2-0.4-6.2-1.3-8.9-2.6c-9.7-4.6-16.3-14.5-16.3-25.9c0-11.4,6.7-21.3,16.3-25.9
		c3.7-1.8,7.9-2.8,12.3-2.8c4.2,0,8.3,0.9,11.9,2.6C965.3,920.8,972.2,930.8,972.2,942.3z"/>
	<line class="st1" x1="928" y1="966.4" x2="928" y2="918.3"/>
	<line class="st1" x1="958.6" y1="966.7" x2="958.6" y2="918"/>
	<line class="st1" x1="943.3" y1="970.8" x2="943.3" y2="913.5"/>
	<g>
		<g>
			<g>
				<circle class="st1" cx="909.2" cy="942.3" r="2"/>
				<circle class="st1" cx="943.3" cy="942.3" r="0.2"/>
			</g>
		</g>
		<g>
			<g>
				<circle class="st1" cx="916" cy="921.3" r="2"/>
				<circle class="st1" cx="943.6" cy="941.3" r="0.2"/>
			</g>
		</g>
		<g>
			<g>
				<circle class="st1" cx="933.9" cy="908.3" r="2"/>
				<circle class="st1" cx="944.5" cy="940.7" r="0.2"/>
			</g>
		</g>
		<g>
			<g>
				<circle class="st1" cx="956.1" cy="908.3" r="2"/>
				<circle class="st1" cx="945.5" cy="940.7" r="0.2"/>
			</g>
		</g>
		<g>
			<g>
				<circle class="st1" cx="974" cy="921.3" r="2"/>
				<circle class="st1" cx="946.4" cy="941.3" r="0.2"/>
			</g>
		</g>
		<g>
			<g>
				<circle class="st1" cx="980.8" cy="942.3" r="2"/>
				<circle class="st1" cx="946.7" cy="942.3" r="0.2"/>
			</g>
		</g>
		<g>
			<g>
				<circle class="st1" cx="974" cy="963.4" r="2"/>
				<circle class="st1" cx="946.4" cy="943.3" r="0.2"/>
			</g>
		</g>
		<g>
			<g>
				<circle class="st1" cx="956.1" cy="976.4" r="2"/>
				<circle class="st1" cx="945.5" cy="944" r="0.2"/>
			</g>
		</g>
		<g>
			<g>
				<circle class="st1" cx="933.9" cy="976.4" r="2"/>
				<circle class="st1" cx="944.5" cy="944" r="0.2"/>
			</g>
		</g>
		<g>
			<g>
				<circle class="st1" cx="916" cy="963.4" r="2"/>
				<circle class="st1" cx="943.6" cy="943.3" r="0.2"/>
			</g>
		</g>
		<g>
			<g>
				<circle class="st1" cx="909.2" cy="942.3" r="2"/>
				<circle class="st1" cx="943.3" cy="942.3" r="0.2"/>
			</g>
		</g>
	</g>
</g>
<g>
	<path class="st1" d="M826.1,513.7l0.3,5.2l-2.8-0.1l-21.4-33.4v-5.1c0-12.6,10.2-22.8,22.8-22.8h14.1c12.6,0,22.8,10.2,22.8,22.8
		v5.1l-21.4,33.4l-2.6,0.1l0.3-5.4"/>
	<polyline class="st1" points="826.1,513.7 825.9,509.7 832.1,516.5 838.3,509.7 838.1,513.5 	"/>
	<polyline class="st1" points="840.4,518.8 847,518.4 840.2,524.6 847,530.8 837.8,530.3 838.3,539.5 832.1,532.7 825.9,539.5 
		826.4,530.3 817.2,530.8 824,524.6 817.2,518.4 823.6,518.8 	"/>
</g>
<g>
	<line class="st1" x1="384.6" y1="1982.7" x2="383" y2="1970.9"/>
	<line class="st1" x1="393.1" y1="1970.9" x2="391.4" y2="1983"/>
	<polyline class="st1" points="382.5,1964.3 380.2,1913.1 388,1898.3 395.9,1913.1 393.6,1964.4 	"/>
	<circle class="st1" cx="387.8" cy="1988" r="6.2"/>
	<polygon class="st1" points="373.2,1970.9 402.9,1970.9 402.9,1965.9 388,1963.4 373.2,1965.8 	"/>
	<line class="st1" x1="388" y1="1963.4" x2="388" y2="1898.3"/>
</g>
<g>
	<line class="st0" x1="997.5" y1="0" x2="997.5" y2="2310"/>
</g>
<g>
	<line class="st0" x1="2.5" y1="0" x2="2.5" y2="2310"/>
</g>
<g>
	<line class="st0" x1="0" y1="2307.4" x2="1000" y2="2307.4"/>
</g>
</svg>
