<?xml version="1.0" encoding="utf-8"?>
<!-- Generator: Adobe Illustrator 25.0.0, SVG Export Plug-In . SVG Version: 6.00 Build 0)  -->
<svg version="1.1" id="Layer_1" xmlns="http://www.w3.org/2000/svg" xmlns:xlink="http://www.w3.org/1999/xlink" x="0px" y="0px"
	 viewBox="0 0 20 20" style="enable-background:new 0 0 20 20;" xml:space="preserve">
<style type="text/css">
	.st0{fill:none;stroke:#000000;stroke-width:0.5;stroke-miterlimit:10;}
</style>
<g>
	<path class="st0" d="M10,2.18v9.84H6.95c0,0-1.95-4.39-1.62-6.48C6.11,5.27,6.7,2.85,5.85,1.87L7.7,1.66
		C7.84,1.95,8.82,2.18,10,2.18z"/>
	<path class="st0" d="M5.33,5.53c0,0-1.81,0.53-2.45,0.41C2.55,5.41,2.39,3.8,2.61,3.19C2.88,2.47,3.92,1.2,5.85,1.87
		C6.43,1.76,7.09,1.7,7.7,1.66"/>
	<path class="st0" d="M14.67,5.53c0.33,2.09-1.62,6.48-1.62,6.48H10"/>
	<path class="st0" d="M14.15,1.87c-0.85,0.98-0.26,3.4,0.52,3.66c0,0,1.81,0.53,2.45,0.41c0.33-0.52,0.48-2.13,0.26-2.75
		C17.12,2.47,16.08,1.2,14.15,1.87L12.3,1.66C12.91,1.7,13.57,1.76,14.15,1.87"/>
	<path class="st0" d="M12.32,1.59c0,0.02-0.01,0.05-0.02,0.07c-0.14,0.29-1.12,0.52-2.3,0.52S7.84,1.95,7.7,1.66
		C7.69,1.64,7.68,1.61,7.68,1.59C7.68,1.26,8.72,1,10,1S12.32,1.26,12.32,1.59z"/>
	<polygon class="st0" points="6.95,12.01 5.65,17.21 6.83,18.71 8.53,17.4 8.97,12.01 	"/>
	<polygon class="st0" points="8.97,12.01 8.53,17.4 10,19 11.41,17.34 11.03,12.01 	"/>
	<polygon class="st0" points="11.03,12.01 11.41,17.34 13.03,18.71 14.28,17.34 13.05,12.01 	"/>
</g>
</svg>
