<?xml version="1.0" encoding="utf-8"?>
<!-- Generator: Adobe Illustrator 25.0.0, SVG Export Plug-In . SVG Version: 6.00 Build 0)  -->
<svg version="1.1" id="Layer_1" xmlns="http://www.w3.org/2000/svg" xmlns:xlink="http://www.w3.org/1999/xlink" x="0px" y="0px"
	 viewBox="0 0 20 20" style="enable-background:new 0 0 20 20;" xml:space="preserve">
<style type="text/css">
	.st0{fill:none;stroke:#000000;stroke-width:0.5;stroke-miterlimit:10;}
</style>
<g>
	<path class="st0" d="M9.58,19.5H9.52c-0.28,0-0.5-0.23-0.5-0.51l0.2-17.83c0-0.28,0.23-0.5,0.51-0.5h0.06c0.28,0,0.5,0.23,0.5,0.51
		L10.09,19C10.08,19.28,9.85,19.5,9.58,19.5z"/>
	<path class="st0" d="M10.32,2.82l-0.03,2.6c0,0,1.37-0.12,3.81,2.37c1.74-2.52,1.48-3.75,1.48-3.75s0.22-1.57-1.47-3.44
		C12.66,2.16,10.32,2.82,10.32,2.82z"/>
	<path class="st0" d="M9.16,2.8L9.13,5.4c0,0-1.37-0.15-3.86,2.29c-1.68-2.55-1.4-3.78-1.4-3.78S3.68,2.33,5.41,0.5
		C6.84,2.09,9.16,2.8,9.16,2.8z"/>
</g>
</svg>
