<?xml version="1.0" encoding="utf-8"?>
<!-- Generator: Adobe Illustrator 25.0.0, SVG Export Plug-In . SVG Version: 6.00 Build 0)  -->
<svg version="1.1" id="Layer_1" xmlns="http://www.w3.org/2000/svg" xmlns:xlink="http://www.w3.org/1999/xlink" x="0px" y="0px"
	 viewBox="0 0 20 20" style="enable-background:new 0 0 20 20;" xml:space="preserve">
<style type="text/css">
	.st0{fill:none;stroke:#000000;stroke-width:0.5;stroke-miterlimit:10;}
</style>
<g>
	<path class="st0" d="M11.39,10.03c2.01-0.04,3.82-0.17,5.22-0.36c1.62-0.22,2.68-0.52,2.87-0.85c0.02-0.03,0.03-0.07,0.03-0.1
		s-0.01-0.07-0.03-0.1C19.1,7.93,15,7.39,10,7.39c-5.25,0-9.5,0.59-9.5,1.33c0,0.37,1.11,0.71,2.89,0.95
		c1.4,0.19,3.22,0.32,5.24,0.36"/>
	<path class="st0" d="M3.39,9.67C5.1,9.44,7.43,9.29,10,9.29c0,0,0.01,0,0.01,0c0,0,0,0,0,0c2.56,0,4.88,0.14,6.59,0.37"/>
	<path class="st0" d="M0.51,10.55C0.5,10.57,0.5,10.6,0.5,10.62c0,0.67,3.56,1.22,8.18,1.31h0"/>
	<path class="st0" d="M11.35,11.94c4.37-0.09,7.78-0.59,8.12-1.21c0.02-0.03,0.03-0.07,0.03-0.1s-0.01-0.07-0.03-0.1"/>
	<circle class="st0" cx="10.01" cy="10.95" r="1.66"/>
	<line class="st0" x1="0.51" y1="8.71" x2="0.51" y2="10.62"/>
	<polyline class="st0" points="19.47,10.72 19.47,10.52 19.47,8.82 19.47,8.61 	"/>
</g>
</svg>
