<?xml version="1.0" encoding="utf-8"?>
<!-- Generator: Adobe Illustrator 25.0.0, SVG Export Plug-In . SVG Version: 6.00 Build 0)  -->
<svg version="1.1" id="Layer_1" xmlns="http://www.w3.org/2000/svg" xmlns:xlink="http://www.w3.org/1999/xlink" x="0px" y="0px"
	 viewBox="0 0 20 20" style="enable-background:new 0 0 20 20;" xml:space="preserve">
<style type="text/css">
	.st0{fill:none;stroke:#000000;stroke-width:0.5;stroke-miterlimit:10;}
</style>
<g>
	<g>
		<path class="st0" d="M8.29,10.02c0,3.52,1.58,6.68,4.08,8.79V19c-3.58-1.42-6.11-4.9-6.11-8.98V10c0-4.09,2.53-7.58,6.11-9v0.23
			C9.87,3.34,8.29,6.5,8.29,10.02z"/>
		<g>
			<g>
				<polyline class="st0" points="16.08,10.02 11.62,10.02 7.2,10.02 4.99,10.02 2.39,10.02 				"/>
				<g>
					<polygon points="0.48,10.02 3.17,8.92 2.53,10.02 3.17,11.12 					"/>
				</g>
			</g>
		</g>
	</g>
	<line class="st0" x1="17.26" y1="9.28" x2="17.26" y2="10.69"/>
	<line class="st0" x1="18.25" y1="9.28" x2="18.25" y2="10.69"/>
	<line class="st0" x1="19.19" y1="9.28" x2="19.19" y2="10.69"/>
	<polyline class="st0" points="12.36,1 16.22,10.02 12.36,19 	"/>
</g>
</svg>
