<?xml version="1.0" encoding="utf-8"?>
<!-- Generator: Adobe Illustrator 25.0.0, SVG Export Plug-In . SVG Version: 6.00 Build 0)  -->
<svg version="1.1" id="Layer_1" xmlns="http://www.w3.org/2000/svg" xmlns:xlink="http://www.w3.org/1999/xlink" x="0px" y="0px"
	 viewBox="0 0 20 20" style="enable-background:new 0 0 20 20;" xml:space="preserve">
<style type="text/css">
	.st0{fill:none;stroke:#000000;stroke-width:0.5;stroke-miterlimit:10;}
</style>
<g>
	<path class="st0" d="M6.4,19c0,0-0.9-12.8,3.6-16C8.8,3,7.9,3,7.9,3S3.7,4.9,3.7,9.5s0,7.5,0,7.5S5,18.9,6.4,19z"/>
	<path class="st0" d="M13.6,19c0,0,0.8-12.8-3.5-16c1.2,0,2.1,0,2.1,0s4.1,1.9,4.2,6.5s0,7.5,0,7.5S15,18.9,13.6,19z"/>
	<polygon class="st0" points="12.5,1 12.1,3 7.9,3 7.6,1 	"/>
	<path class="st0" d="M10,1v2C9.3,4.6,9,8.6,9,8.6"/>
	<path class="st0" d="M6.4,16.1c2.3-0.9,7.3,0,7.3,0"/>
	<path class="st0" d="M10.8,8.6c0,0-0.3-3.6-0.8-5.6"/>
</g>
</svg>
