<?xml version="1.0" encoding="utf-8"?>
<!-- Generator: Adobe Illustrator 25.0.0, SVG Export Plug-In . SVG Version: 6.00 Build 0)  -->
<svg version="1.1" id="Layer_1" xmlns="http://www.w3.org/2000/svg" xmlns:xlink="http://www.w3.org/1999/xlink" x="0px" y="0px"
	 viewBox="0 0 20 20" style="enable-background:new 0 0 20 20;" xml:space="preserve">
<style type="text/css">
	.st0{fill:none;stroke:#000000;stroke-width:0.5;stroke-miterlimit:10;}
	.st1{fill:#FF2600;stroke:#000000;stroke-width:0.5;stroke-miterlimit:10;}
</style>
<g>
	<path class="st0" d="M9.41,19.5L9.41,19.5c-0.36,0-0.65-0.29-0.65-0.65L7.14,4.03c0-0.36,0-2.27,2.27-2.27l0,0
		c2.27,0,2.27,1.91,2.27,2.27l-1.62,14.82C10.06,19.21,9.76,19.5,9.41,19.5z"/>
	<polygon class="st0" points="7.03,2.33 7.58,2.33 7.31,2.81 7.03,3.3 6.75,2.81 6.47,2.33 	"/>
	<polygon class="st0" points="11.72,2.33 11.17,2.33 11.44,2.81 11.72,3.3 12,2.81 12.28,2.33 	"/>
	<polygon class="st0" points="9.8,1.13 10.16,1.76 9.43,1.76 8.7,1.76 9.07,1.13 9.43,0.5 	"/>
	<polygon class="st0" points="12.2,4.38 11.76,4.04 11.68,4.59 11.6,5.14 12.12,4.94 12.64,4.73 	"/>
	<polygon class="st0" points="6.7,4.38 7.14,4.04 7.22,4.59 7.29,5.14 6.78,4.94 6.26,4.73 	"/>
	<circle class="st0" cx="9.41" cy="4.03" r="0.65"/>
	<circle class="st1" cx="9.41" cy="4.03" r="0.2"/>
</g>
</svg>
