<?xml version="1.0" encoding="utf-8"?>
<!-- Generator: Adobe Illustrator 25.0.0, SVG Export Plug-In . SVG Version: 6.00 Build 0)  -->
<svg version="1.1" id="Layer_1" xmlns="http://www.w3.org/2000/svg" xmlns:xlink="http://www.w3.org/1999/xlink" x="0px" y="0px"
	 viewBox="0 0 20 20" style="enable-background:new 0 0 20 20;" xml:space="preserve">
<style type="text/css">
	.st0{fill:none;stroke:#000000;stroke-width:0.5;stroke-miterlimit:10;}
</style>
<g>
	<path class="st0" d="M1.75,14.95c-0.04-0.32-0.06-0.66-0.06-0.99c0-4.55,3.69-8.24,8.24-8.24s8.24,3.69,8.24,8.24
		c0,0.34-0.02,0.67-0.06,0.99"/>
	<g>
		<path d="M10,15.68c0.06,0,0.11,0.05,0.11,0.11S10.06,15.9,10,15.9s-0.11-0.05-0.11-0.11S9.94,15.68,10,15.68 M10,15.18
			c-0.34,0-0.61,0.27-0.61,0.61S9.66,16.4,10,16.4s0.61-0.27,0.61-0.61S10.34,15.18,10,15.18L10,15.18z"/>
	</g>
	<g>
		<path d="M14.02,15.73c0.06,0,0.11,0.05,0.11,0.11s-0.05,0.11-0.11,0.11s-0.11-0.05-0.11-0.11S13.96,15.73,14.02,15.73
			 M14.02,15.23c-0.34,0-0.61,0.27-0.61,0.61s0.27,0.61,0.61,0.61s0.61-0.27,0.61-0.61S14.36,15.23,14.02,15.23L14.02,15.23z"/>
	</g>
	<g>
		<path d="M17.55,16.03c0.06,0,0.11,0.05,0.11,0.11c0,0.06-0.05,0.11-0.11,0.11s-0.11-0.05-0.11-0.11
			C17.44,16.08,17.49,16.03,17.55,16.03 M17.55,15.53c-0.34,0-0.61,0.27-0.61,0.61c0,0.34,0.27,0.61,0.61,0.61s0.61-0.27,0.61-0.61
			C18.16,15.8,17.89,15.53,17.55,15.53L17.55,15.53z"/>
	</g>
	<g>
		<path d="M5.8,15.73c0.06,0,0.11,0.05,0.11,0.11s-0.05,0.11-0.11,0.11s-0.11-0.05-0.11-0.11S5.74,15.73,5.8,15.73 M5.8,15.23
			c-0.34,0-0.61,0.27-0.61,0.61s0.27,0.61,0.61,0.61s0.61-0.27,0.61-0.61S6.14,15.23,5.8,15.23L5.8,15.23z"/>
	</g>
	<g>
		<path d="M2.3,16.03c0.06,0,0.11,0.05,0.11,0.11c0,0.06-0.05,0.11-0.11,0.11s-0.11-0.05-0.11-0.11C2.19,16.08,2.24,16.03,2.3,16.03
			 M2.3,15.53c-0.34,0-0.61,0.27-0.61,0.61c0,0.34,0.27,0.61,0.61,0.61s0.61-0.27,0.61-0.61C2.91,15.8,2.63,15.53,2.3,15.53
			L2.3,15.53z"/>
	</g>
	<polyline class="st0" points="8.47,14.5 8.47,5.85 8.47,5.79 10.08,1.54 11.53,5.87 11.53,5.87 11.53,14.5 11.53,14.64 	"/>
	<path class="st0" d="M18.95,15.25C18.98,15.23,19,15.2,19,15.18c0-0.38-4.03-0.69-9-0.69s-9,0.31-9,0.69
		c0,0.03,0.02,0.05,0.05,0.08"/>
	<ellipse class="st0" cx="10" cy="17.77" rx="9" ry="0.69"/>
	<polyline class="st0" points="1,17.85 1,17.77 1,15.25 1.05,15.25 	"/>
	<polyline class="st0" points="18.95,15.25 19,15.25 19,17.77 19,17.85 	"/>
</g>
</svg>
