<?xml version="1.0" encoding="utf-8"?>
<!-- Generator: Adobe Illustrator 25.0.0, SVG Export Plug-In . SVG Version: 6.00 Build 0)  -->
<svg version="1.1" id="Layer_1" xmlns="http://www.w3.org/2000/svg" xmlns:xlink="http://www.w3.org/1999/xlink" x="0px" y="0px"
	 viewBox="0 0 20 20" style="enable-background:new 0 0 20 20;" xml:space="preserve">
<style type="text/css">
	.st0{fill:none;stroke:#000000;stroke-width:0.5;stroke-miterlimit:10;}
</style>
<g>
	<path class="st0" d="M8.71,13.34l0.06,1.13l-0.6-0.03l-4.7-7.33V6c0-2.76,2.24-5,5-5h3.08c2.76,0,5,2.24,5,5v1.11l-4.71,7.33
		l-0.57,0.03l0.06-1.19"/>
	<polyline class="st0" points="8.71,13.34 8.66,12.45 10.02,13.96 11.37,12.45 11.33,13.29 	"/>
	<polyline class="st0" points="11.84,14.45 13.29,14.37 11.79,15.73 13.29,17.08 11.27,16.98 11.37,19 10.02,17.5 8.66,19 
		8.76,16.98 6.74,17.08 8.25,15.73 6.74,14.37 8.16,14.44 	"/>
</g>
</svg>
