<?xml version="1.0" encoding="utf-8"?>
<!-- Generator: Adobe Illustrator 25.0.0, SVG Export Plug-In . SVG Version: 6.00 Build 0)  -->
<svg version="1.1" id="Layer_1" xmlns="http://www.w3.org/2000/svg" xmlns:xlink="http://www.w3.org/1999/xlink" x="0px" y="0px"
	 viewBox="0 0 20 20" style="enable-background:new 0 0 20 20;" xml:space="preserve">
<style type="text/css">
	.st0{fill:none;stroke:#000000;stroke-width:0.5;stroke-miterlimit:10;}
</style>
<path class="st0" d="M7.98,11.22"/>
<g>
	<path class="st0" d="M12.23,3.37c0.04,0.17,0.06,0.34,0.06,0.51v12.6c0,1.26-1.03,2.29-2.29,2.29s-2.29-1.03-2.29-2.29V3.88
		c0-0.18,0.02-0.35,0.06-0.51"/>
	<path class="st0" d="M12.47,3.37H7.53c-0.59,0-1.07-0.48-1.07-1.07v0c0-0.59,0.48-1.07,1.07-1.07h4.95c0.59,0,1.07,0.48,1.07,1.07
		v0C13.55,2.89,13.06,3.37,12.47,3.37z"/>
	<path class="st0" d="M7.71,8.16c0,0,0.35-0.54,1.35-0.24S10.16,8.59,11,8.5c0.84-0.09,1.28-0.58,1.28-0.58"/>
</g>
</svg>
