<?xml version="1.0" encoding="utf-8"?>
<!-- Generator: Adobe Illustrator 25.0.0, SVG Export Plug-In . SVG Version: 6.00 Build 0)  -->
<svg version="1.1" id="Layer_1" xmlns="http://www.w3.org/2000/svg" xmlns:xlink="http://www.w3.org/1999/xlink" x="0px" y="0px"
	 viewBox="0 0 20 20" style="enable-background:new 0 0 20 20;" xml:space="preserve">
<style type="text/css">
	.st0{fill:none;stroke:#000000;stroke-miterlimit:10;}
</style>
<g>
	<path class="st0" d="M16.1,0.6v5.1c0,0.6-0.5,1.1-1.1,1.1H5.3c-0.6,0-1.1-0.5-1.1-1.1V0.6H16.1z"/>
	<rect x="4.2" y="10.1" class="st0" width="11.9" height="9.4"/>
	<path class="st0" d="M17.3,0.6l2.2,2.2v15.6c0,0.6-0.5,1.1-1.1,1.1h-2.2H4.2H1.7c-0.6,0-1.1-0.5-1.1-1.1V1.7C0.5,1,1,0.5,1.7,0.5
		h2.5h11.9L17.3,0.6L17.3,0.6z"/>
	<rect x="12.1" y="0.5" class="st0" width="2.6" height="4.7"/>
	<line class="st0" x1="5.4" y1="12" x2="14.6" y2="12"/>
	<line class="st0" x1="5.4" y1="13.8" x2="14.6" y2="13.8"/>
	<line class="st0" x1="5.4" y1="15.5" x2="14.6" y2="15.5"/>
	<line class="st0" x1="5.4" y1="17.3" x2="14.6" y2="17.3"/>
</g>
</svg>
