<?xml version="1.0" encoding="utf-8"?>
<!-- Generator: Adobe Illustrator 25.0.0, SVG Export Plug-In . SVG Version: 6.00 Build 0)  -->
<svg version="1.1" id="Layer_1" xmlns="http://www.w3.org/2000/svg" xmlns:xlink="http://www.w3.org/1999/xlink" x="0px" y="0px"
	 viewBox="0 0 20 20" style="enable-background:new 0 0 20 20;" xml:space="preserve">
<style type="text/css">
	.st0{fill:none;stroke:#000000;stroke-width:0.5;stroke-miterlimit:10;}
</style>
<path class="st0" d="M10,10"/>
<path d="M10,1.5c4.69,0,8.5,3.81,8.5,8.5s-3.81,8.5-8.5,8.5S1.5,14.69,1.5,10S5.31,1.5,10,1.5 M10,1c-4.96,0-9,4.04-9,9s4.04,9,9,9
	s9-4.04,9-9S14.96,1,10,1L10,1z"/>
<path d="M13.59,4.79c-0.08-0.06-0.16-0.11-0.25-0.16c-0.22-0.15-0.46-0.28-0.71-0.39c-0.8-0.36-1.69-0.57-2.63-0.57
	c-0.97,0-1.89,0.22-2.72,0.62C7.04,4.41,6.8,4.54,6.58,4.68C6.49,4.74,6.41,4.8,6.32,4.86C4.72,6,3.67,7.88,3.67,10
	s1.05,4,2.65,5.14c0.09,0.06,0.17,0.12,0.26,0.18c0.22,0.14,0.46,0.27,0.7,0.39C7.89,16,8.55,16.2,9.25,16.28
	c0.25,0.03,0.5,0.05,0.75,0.05s0.5-0.02,0.75-0.05c0.66-0.08,1.3-0.26,1.88-0.52c0.25-0.11,0.49-0.24,0.71-0.39
	c0.09-0.05,0.17-0.1,0.25-0.16c1.66-1.14,2.74-3.05,2.74-5.21S15.25,5.93,13.59,4.79z M13.59,14.59c-0.16,0.13-0.32,0.24-0.5,0.35
	c-0.21,0.13-0.44,0.25-0.67,0.36c-0.55,0.25-1.13,0.42-1.73,0.49c-0.23,0.02-0.46,0.04-0.69,0.04s-0.46-0.02-0.69-0.04
	c-0.63-0.08-1.24-0.25-1.81-0.53c-0.24-0.11-0.47-0.24-0.68-0.38c-0.18-0.12-0.34-0.24-0.5-0.37C4.98,13.42,4.17,11.77,4.17,10
	s0.81-3.42,2.15-4.51c0.16-0.13,0.32-0.25,0.5-0.37C7.03,4.98,7.26,4.85,7.5,4.74C8.28,4.36,9.12,4.17,10,4.17
	c0.84,0,1.66,0.18,2.42,0.53c0.23,0.11,0.46,0.23,0.67,0.36c0.18,0.11,0.34,0.22,0.5,0.35c1.39,1.09,2.24,2.78,2.24,4.59
	S14.98,13.5,13.59,14.59z"/>
<path d="M6.82,4.68v10.64H6.58c-0.09-0.06-0.17-0.12-0.26-0.18V4.86C6.41,4.8,6.49,4.74,6.58,4.68H6.82z"/>
<path d="M13.59,4.79v10.42c-0.08,0.06-0.16,0.11-0.25,0.16h-0.25V4.63h0.25C13.43,4.68,13.51,4.73,13.59,4.79z"/>
<polygon points="9.75,3.7 9.75,4.21 9.75,15.84 9.75,16.3 10.25,16.3 10.25,15.84 10.25,4.2 10.25,3.7 "/>
<g>
	<g>
		<g>
			<circle cx="2.56" cy="10" r="0.46"/>
		</g>
	</g>
	<g>
		<g>
			<circle cx="3.98" cy="5.63" r="0.46"/>
		</g>
	</g>
	<g>
		<g>
			<circle cx="7.7" cy="2.92" r="0.46"/>
		</g>
	</g>
	<g>
		<g>
			<circle cx="12.3" cy="2.92" r="0.46"/>
		</g>
	</g>
	<g>
		<g>
			<circle cx="16.02" cy="5.63" r="0.46"/>
		</g>
	</g>
	<g>
		<g>
			<circle cx="17.44" cy="10" r="0.46"/>
		</g>
	</g>
	<g>
		<g>
			<circle cx="16.02" cy="14.37" r="0.46"/>
		</g>
	</g>
	<g>
		<g>
			<circle cx="12.3" cy="17.08" r="0.46"/>
		</g>
	</g>
	<g>
		<g>
			<circle cx="7.7" cy="17.08" r="0.46"/>
		</g>
	</g>
	<g>
		<g>
			<circle cx="3.98" cy="14.37" r="0.46"/>
		</g>
	</g>
	<g>
		<g>
			<circle cx="2.56" cy="10" r="0.46"/>
		</g>
	</g>
</g>
<circle cx="10" cy="10" r="1.7"/>
</svg>
