<?xml version="1.0" encoding="utf-8"?>
<!-- Generator: Adobe Illustrator 25.0.0, SVG Export Plug-In . SVG Version: 6.00 Build 0)  -->
<svg version="1.1" id="Layer_1" xmlns="http://www.w3.org/2000/svg" xmlns:xlink="http://www.w3.org/1999/xlink" x="0px" y="0px"
	 viewBox="0 0 20 20" style="enable-background:new 0 0 20 20;" xml:space="preserve">
<style type="text/css">
	.st0{fill:none;stroke:#000000;stroke-width:0.5;stroke-miterlimit:10;}
</style>
<g>
	<path class="st0" d="M4.67,19.46l-1.83-0.79c0.05-0.11,1.17-2.71,2.66-5.38c0.88-1.59,1.71-2.88,2.46-3.82
		c1.1-1.39,2.05-2.07,2.98-2.15c0.47-0.04,0.72-0.17,0.75-0.38c0.06-0.45-0.42-1.22-0.99-1.42c-1.45-0.5-1.82-1.64-1.7-2.46
		c0.15-0.99,0.98-1.75,1.98-1.79c0.56-0.02,1.25,0.09,1.91,0.2c0.5,0.08,1.33,0.22,1.61,0.16c0.33-0.22,0.79-0.75,1.02-1.08
		l1.63,1.14c-0.08,0.12-0.84,1.19-1.68,1.68c-0.71,0.42-1.73,0.25-2.9,0.06c-0.56-0.09-1.14-0.19-1.5-0.17
		c-0.09,0-0.1,0.09-0.1,0.09c-0.01,0.07,0.12,0.2,0.39,0.29c1.43,0.5,2.49,2.13,2.31,3.55c-0.15,1.2-1.11,1.99-2.56,2.12
		c-0.05,0-1.21,0.15-3.87,4.95C5.81,16.83,4.68,19.43,4.67,19.46z"/>
	<path class="st0" d="M3.75,19.06c0,0,4.55-10.53,7.28-10.76s1.65-3.16,0-3.73s-1.14-2.27,0-2.32S14.3,2.9,14.97,2.5
		c0.68-0.4,1.37-1.39,1.37-1.39"/>
</g>
<line class="st0" x1="7.32" y1="0.85" x2="6.83" y2="2.41"/>
<line class="st0" x1="6.29" y1="1.38" x2="7.86" y2="1.87"/>
<line class="st0" x1="7.32" y1="5.98" x2="6.83" y2="7.55"/>
<line class="st0" x1="6.29" y1="6.52" x2="7.86" y2="7.01"/>
<line class="st0" x1="18.03" y1="4.42" x2="17.54" y2="5.98"/>
<line class="st0" x1="17" y1="4.95" x2="18.57" y2="5.44"/>
</svg>
